# Blender v2.79 (sub 0) OBJ File: 'busbar.blend'
# www.blender.org
mtllib busmaterial.mtl
o busbar_bend
v -0.062500 -0.312500 0.062500
v -0.062500 -0.312500 -0.500000
v -0.062500 -0.250000 -0.500000
v 0.062500 -0.250000 0.062500
v 0.062500 -0.250000 -0.500000
v -0.375000 -0.312500 -0.250000
v -0.375000 -0.250000 -0.250000
v -0.375000 -0.250000 -0.500000
v -0.250000 -0.250000 -0.250000
v -0.250000 -0.312500 -0.500000
v -0.250000 -0.250000 -0.500000
v 0.250000 -0.250000 -0.500000
v 0.375000 -0.312500 -0.500000
v 0.375000 -0.250000 -0.500000
v 0.062500 -0.312500 0.062500
v -0.500000 -0.250000 0.062500
v -0.500000 -0.250000 -0.062500
v -0.250000 -0.312500 -0.250000
v -0.500000 -0.312500 -0.250000
v -0.500000 -0.250000 -0.250000
v -0.500000 -0.250000 -0.375000
v 0.375000 -0.312500 0.375000
v 0.375000 -0.250000 0.375000
v 0.375000 -0.312500 0.250000
v 0.375000 -0.250000 0.250000
v 0.250000 -0.312500 0.250000
v 0.250000 -0.312500 0.375000
v 0.250000 -0.250000 0.375000
v 0.250000 -0.250000 0.250000
v -0.062500 -0.250000 0.062500
v -0.062500 -0.250000 -0.062500
v 0.062500 -0.312500 -0.062500
v 0.062500 -0.250000 -0.062500
v -0.062500 -0.312500 -0.062500
v -0.375000 -0.312500 -0.375000
v -0.250000 -0.312500 -0.375000
v -0.250000 -0.250000 -0.375000
v -0.375000 -0.250000 -0.375000
v -0.500000 -0.312500 0.062500
v -0.500000 -0.312500 0.250000
v -0.500000 -0.312500 0.375000
v -0.500000 -0.250000 0.375000
v -0.500000 -0.250000 0.250000
v -0.500000 -0.312500 -0.062500
v -0.500000 -0.312500 -0.375000
v -0.375000 -0.312500 -0.500000
v 0.062500 -0.312500 -0.500000
v 0.250000 -0.312500 -0.500000
vt 0.687500 0.812500
vt 0.687500 0.875000
vt 0.562500 0.875000
vt 0.562500 0.812500
vt 0.687500 0.812500
vt 0.687500 0.875000
vt 0.562500 0.875000
vt 0.562500 0.812500
vt 0.875000 1.000000
vt 0.875000 0.875000
vt 1.000000 0.875000
vt 1.000000 1.000000
vt 0.875000 0.812500
vt 1.000000 0.812500
vt 1.000000 0.875000
vt 0.875000 0.875000
vt 0.000000 0.812500
vt 0.750000 0.812500
vt 0.750000 0.875000
vt 0.000000 0.875000
vt 0.687500 0.812500
vt 0.687500 0.875000
vt 0.562500 0.875000
vt 0.562500 0.812500
vt 0.687500 0.812500
vt 0.687500 0.875000
vt 0.562500 0.875000
vt 0.562500 0.812500
vt 0.875000 1.000000
vt 0.875000 0.875000
vt 1.000000 0.875000
vt 1.000000 1.000000
vt 0.875000 0.812500
vt 1.000000 0.812500
vt 1.000000 0.875000
vt 0.875000 0.875000
vt 0.250000 0.812500
vt 1.000000 0.812500
vt 1.000000 0.875000
vt 0.250000 0.875000
vt 0.000000 0.812500
vt 0.750000 0.812500
vt 0.750000 0.875000
vt 0.000000 0.875000
vt 1.000000 0.875000
vt 1.000000 1.000000
vt 0.250000 1.000000
vt 0.250000 0.875000
vt 0.875000 0.812500
vt 0.875000 0.875000
vt 1.000000 1.000000
vt 0.250000 1.000000
vt 0.250000 0.812500
vt 1.000000 0.812500
vt 1.000000 0.875000
vt 0.250000 0.875000
vt 0.250000 1.000000
vt 0.125000 1.000000
vt 0.125000 0.875000
vt 0.125000 0.812500
vt 0.250000 1.000000
vt 0.250000 0.875000
vt 1.000000 0.875000
vt 1.000000 1.000000
vt 0.125000 1.000000
vt 0.125000 0.875000
vt 1.000000 1.000000
vt 1.000000 0.875000
vt 1.000000 1.000000
vt 0.562500 1.000000
vt 0.562500 0.875000
vt 0.562500 0.812500
vt 1.000000 0.812500
vt 0.000000 0.812500
vt 0.437500 0.812500
vt 0.437500 0.875000
vt 0.000000 0.875000
vt 0.562500 0.875000
vt 0.562500 1.000000
vt 0.437500 1.000000
vt 0.437500 0.875000
vt 1.000000 0.875000
vt 1.000000 1.000000
vt 1.000000 0.875000
vt 1.000000 1.000000
vt 0.562500 1.000000
vt 0.562500 0.875000
vt 0.562500 0.812500
vt 1.000000 0.812500
vt 0.000000 0.812500
vt 0.437500 0.812500
vt 0.437500 0.875000
vt 0.000000 0.875000
vt 0.562500 1.000000
vt 0.562500 0.875000
vt 1.000000 0.875000
vt 1.000000 1.000000
vt 0.437500 1.000000
vt 0.437500 0.875000
vt 1.000000 1.000000
vt 0.875000 1.000000
vt 0.750000 1.000000
vt 0.750000 0.875000
vt 0.000000 0.812500
vt 0.125000 0.812500
vt 0.125000 0.875000
vt 0.000000 0.875000
vt 0.750000 1.000000
vt 0.750000 0.875000
vt 1.000000 1.000000
vt 0.875000 1.000000
vt 0.000000 0.812500
vt 0.125000 0.812500
vt 0.125000 0.875000
vt 0.000000 0.875000
vt 0.750000 0.812500
vt 0.875000 0.812500
vt 0.875000 0.875000
vt 0.750000 0.875000
vt 0.437500 0.812500
vt 0.562500 0.812500
vt 0.562500 0.875000
vt 0.437500 0.875000
vt 0.125000 0.812500
vt 0.250000 0.812500
vt 0.250000 0.875000
vt 0.125000 0.875000
vt 0.750000 0.812500
vt 0.875000 0.812500
vt 0.875000 0.875000
vt 0.750000 0.875000
vt 0.437500 0.812500
vt 0.562500 0.812500
vt 0.562500 0.875000
vt 0.437500 0.875000
vt 0.125000 0.812500
vt 0.250000 0.812500
vt 0.250000 0.875000
vt 0.125000 0.875000
vn 0.0000 -0.0000 1.0000
vn 0.0000 -1.0000 0.0000
vn 1.0000 0.0000 0.0000
vn -1.0000 0.0000 0.0000
vn 0.0000 -0.0000 -1.0000
vn 0.0000 1.0000 0.0000
usemtl None
s off
f 15/1/1 4/2/1 30/3/1 1/4/1
f 18/5/1 9/6/1 7/7/1 6/8/1
f 36/9/2 35/10/2 46/11/2 10/12/2
f 36/13/3 10/14/3 11/15/3 37/16/3
f 48/17/4 26/18/4 29/19/4 12/20/4
f 32/21/3 33/22/3 4/23/3 15/24/3
f 36/25/3 37/26/3 9/27/3 18/28/3
f 35/29/2 6/30/2 19/31/2 45/32/2
f 35/33/5 45/34/5 21/35/5 38/36/5
f 26/37/5 40/38/5 43/39/5 29/40/5
f 41/41/1 27/42/1 28/43/1 42/44/1
f 41/45/2 40/46/2 26/47/2 27/48/2
f 27/42/1 22/49/1 23/50/1 28/43/1
f 43/39/6 42/51/6 28/52/6 29/40/6
f 24/53/3 13/54/3 14/55/3 25/56/3
f 25/56/6 29/57/6 28/58/6 23/59/6
f 22/60/3 24/53/3 25/56/3 23/59/3
f 24/61/2 26/62/2 48/63/2 13/64/2
f 22/65/2 27/66/2 26/62/2 24/61/2
f 29/57/6 25/56/6 14/55/6 12/67/6
f 5/68/6 3/69/6 31/70/6 33/71/6
f 32/72/3 47/73/3 5/68/3 33/71/3
f 2/74/4 34/75/4 31/76/4 3/77/4
f 34/78/2 32/79/2 15/80/2 1/81/2
f 32/79/2 34/78/2 2/82/2 47/83/2
f 17/84/6 16/85/6 30/86/6 31/87/6
f 34/88/5 44/89/5 17/84/5 31/87/5
f 39/90/1 1/91/1 30/92/1 16/93/1
f 34/94/2 1/95/2 39/96/2 44/97/2
f 30/98/6 4/99/6 33/71/6 31/70/6
f 11/15/6 8/100/6 38/101/6 37/16/6
f 37/16/6 38/101/6 7/102/6 9/103/6
f 46/104/4 35/105/4 38/106/4 8/107/4
f 18/108/2 6/109/2 35/10/2 36/9/2
f 21/35/6 20/110/6 7/111/6 38/36/6
f 19/112/1 6/113/1 7/114/1 20/115/1
f 40/116/4 41/117/4 42/118/4 43/119/4
f 44/120/4 39/121/4 16/122/4 17/123/4
f 45/124/4 19/125/4 20/126/4 21/127/4
f 10/128/5 46/129/5 8/130/5 11/131/5
f 47/132/5 2/133/5 3/134/5 5/135/5
f 13/136/5 48/137/5 12/138/5 14/139/5
o busbar_insulators_corner
v 0.062500 -0.437500 0.062500
v 0.031250 -0.375000 0.031250
v 0.062500 -0.437500 -0.062500
v 0.031250 -0.375000 -0.031250
v -0.062500 -0.437500 -0.062500
v -0.031250 -0.375000 -0.031250
v -0.031250 -0.375000 0.031250
v -0.062500 -0.437500 0.062500
v 0.031250 -0.312500 -0.031250
v 0.062500 -0.500000 -0.062500
v 0.031250 -0.312500 0.031250
v 0.062500 -0.500000 0.062500
v -0.031250 -0.312500 -0.031250
v -0.062500 -0.500000 -0.062500
v -0.031250 -0.312500 0.031250
v -0.062500 -0.500000 0.062500
v -0.375000 -0.500000 -0.250000
v -0.343750 -0.312500 -0.281250
v -0.375000 -0.500000 -0.375000
v -0.343750 -0.312500 -0.343750
v -0.250000 -0.500000 -0.250000
v -0.281250 -0.312500 -0.281250
v -0.250000 -0.500000 -0.375000
v -0.281250 -0.312500 -0.343750
v -0.375000 -0.437500 -0.250000
v -0.343750 -0.375000 -0.281250
v -0.343750 -0.375000 -0.343750
v -0.375000 -0.437500 -0.375000
v -0.281250 -0.375000 -0.343750
v -0.250000 -0.437500 -0.375000
v -0.281250 -0.375000 -0.281250
v -0.250000 -0.437500 -0.250000
v 0.375000 -0.437500 0.375000
v 0.343750 -0.375000 0.343750
v 0.375000 -0.437500 0.250000
v 0.343750 -0.375000 0.281250
v 0.250000 -0.437500 0.250000
v 0.281250 -0.375000 0.281250
v 0.281250 -0.375000 0.343750
v 0.250000 -0.437500 0.375000
v 0.343750 -0.312500 0.281250
v 0.375000 -0.500000 0.250000
v 0.343750 -0.312500 0.343750
v 0.375000 -0.500000 0.375000
v 0.281250 -0.312500 0.281250
v 0.250000 -0.500000 0.250000
v 0.281250 -0.312500 0.343750
v 0.250000 -0.500000 0.375000
vt 0.125000 0.062500
vt 0.093750 0.125000
vt 0.031250 0.125000
vt 0.000000 0.062500
vt 0.125000 0.062500
vt 0.093750 0.125000
vt 0.031250 0.125000
vt 0.000000 0.062500
vt 0.125000 0.000000
vt 0.000000 0.000000
vt 0.125000 0.000000
vt 0.000000 0.000000
vt 0.125000 0.000000
vt 0.125000 0.062500
vt 0.000000 0.062500
vt 0.000000 0.000000
vt 0.125000 0.125000
vt 0.125000 0.187500
vt 0.000000 0.187500
vt 0.000000 0.125000
vt 0.125000 0.125000
vt 0.125000 0.187500
vt 0.000000 0.187500
vt 0.000000 0.125000
vt 0.125000 0.125000
vt 0.125000 0.187500
vt 0.000000 0.187500
vt 0.000000 0.125000
vt 0.125000 0.125000
vt 0.125000 0.187500
vt 0.000000 0.187500
vt 0.000000 0.125000
vt 0.125000 0.312500
vt 0.000000 0.312500
vt 0.000000 0.187500
vt 0.125000 0.187500
vt 0.125000 0.125000
vt 0.125000 0.187500
vt 0.000000 0.187500
vt 0.000000 0.125000
vt 0.125000 0.125000
vt 0.125000 0.187500
vt 0.000000 0.187500
vt 0.000000 0.125000
vt 0.125000 0.125000
vt 0.125000 0.187500
vt 0.000000 0.187500
vt 0.000000 0.125000
vt 0.125000 0.125000
vt 0.125000 0.187500
vt 0.000000 0.187500
vt 0.000000 0.125000
vt 0.125000 0.312500
vt 0.000000 0.312500
vt 0.000000 0.187500
vt 0.125000 0.187500
vt 0.125000 0.000000
vt 0.125000 0.062500
vt 0.000000 0.062500
vt 0.000000 0.000000
vt 0.093750 0.125000
vt 0.031250 0.125000
vt 0.125000 0.000000
vt 0.125000 0.062500
vt 0.000000 0.062500
vt 0.000000 0.000000
vt 0.093750 0.125000
vt 0.031250 0.125000
vt 0.125000 0.000000
vt 0.125000 0.062500
vt 0.000000 0.062500
vt 0.000000 0.000000
vt 0.093750 0.125000
vt 0.031250 0.125000
vt 0.125000 0.000000
vt 0.125000 0.062500
vt 0.000000 0.062500
vt 0.000000 0.000000
vt 0.093750 0.125000
vt 0.031250 0.125000
vt 0.093750 0.125000
vt 0.031250 0.125000
vt 0.125000 0.000000
vt 0.125000 0.062500
vt 0.000000 0.062500
vt 0.000000 0.000000
vt 0.093750 0.125000
vt 0.031250 0.125000
vt 0.125000 0.062500
vt 0.093750 0.125000
vt 0.031250 0.125000
vt 0.000000 0.062500
vt 0.125000 0.062500
vt 0.093750 0.125000
vt 0.031250 0.125000
vt 0.000000 0.062500
vt 0.125000 0.000000
vt 0.000000 0.000000
vt 0.125000 0.000000
vt 0.000000 0.000000
vt 0.125000 0.000000
vt 0.125000 0.062500
vt 0.000000 0.062500
vt 0.000000 0.000000
vt 0.125000 0.125000
vt 0.125000 0.187500
vt 0.000000 0.187500
vt 0.000000 0.125000
vt 0.125000 0.125000
vt 0.125000 0.187500
vt 0.000000 0.187500
vt 0.000000 0.125000
vt 0.125000 0.125000
vt 0.125000 0.187500
vt 0.000000 0.187500
vt 0.000000 0.125000
vt 0.125000 0.125000
vt 0.125000 0.187500
vt 0.000000 0.187500
vt 0.000000 0.125000
vt 0.125000 0.312500
vt 0.000000 0.312500
vt 0.000000 0.187500
vt 0.125000 0.187500
vt 0.093750 0.125000
vt 0.031250 0.125000
vt 0.125000 0.000000
vt 0.125000 0.062500
vt 0.000000 0.062500
vt 0.000000 0.000000
vt 0.093750 0.125000
vt 0.031250 0.125000
vn 0.8944 0.4472 0.0000
vn 0.0000 0.4472 0.8944
vn 0.0000 0.0000 1.0000
vn 1.0000 0.0000 0.0000
vn 0.0000 0.0000 -1.0000
vn -1.0000 0.0000 0.0000
vn 0.0000 -1.0000 0.0000
vn 0.0000 0.4472 -0.8944
vn -0.8944 0.4472 0.0000
usemtl None
s off
f 51/140/7 52/141/7 50/142/7 49/143/7
f 49/144/8 50/145/8 55/146/8 56/147/8
f 60/148/9 49/144/9 56/147/9 64/149/9
f 58/150/10 51/140/10 49/143/10 60/151/10
f 62/152/11 53/153/11 51/154/11 58/155/11
f 50/156/9 59/157/9 63/158/9 55/159/9
f 54/160/11 61/161/11 57/162/11 52/163/11
f 55/164/12 63/165/12 61/166/12 54/167/12
f 52/168/10 57/169/10 59/170/10 50/171/10
f 62/172/13 58/173/13 60/174/13 64/175/13
f 74/176/12 66/177/12 68/178/12 75/179/12
f 75/180/11 68/181/11 72/182/11 77/183/11
f 77/184/10 72/185/10 70/186/10 79/187/10
f 79/188/9 70/189/9 66/190/9 74/191/9
f 67/192/13 71/193/13 69/194/13 65/195/13
f 69/196/9 80/197/9 73/198/9 65/199/9
f 80/197/8 79/200/8 74/201/8 73/198/8
f 71/202/10 78/203/10 80/204/10 69/205/10
f 78/203/7 77/206/7 79/207/7 80/204/7
f 67/208/11 76/209/11 78/210/11 71/211/11
f 76/209/14 75/212/14 77/213/14 78/210/14
f 65/214/12 73/215/12 76/216/12 67/217/12
f 73/215/15 74/218/15 75/219/15 76/216/15
f 53/153/14 54/220/14 52/221/14 51/154/14
f 64/222/12 56/223/12 53/224/12 62/225/12
f 56/223/15 55/226/15 54/227/15 53/224/15
f 83/228/7 84/229/7 82/230/7 81/231/7
f 81/232/8 82/233/8 87/234/8 88/235/8
f 92/236/9 81/232/9 88/235/9 96/237/9
f 90/238/10 83/228/10 81/231/10 92/239/10
f 94/240/11 85/241/11 83/242/11 90/243/11
f 82/244/9 91/245/9 95/246/9 87/247/9
f 86/248/11 93/249/11 89/250/11 84/251/11
f 87/252/12 95/253/12 93/254/12 86/255/12
f 84/256/10 89/257/10 91/258/10 82/259/10
f 94/260/13 90/261/13 92/262/13 96/263/13
f 85/241/14 86/264/14 84/265/14 83/242/14
f 96/266/12 88/267/12 85/268/12 94/269/12
f 88/267/15 87/270/15 86/271/15 85/268/15
