# Blender v2.79 (sub 0) OBJ File: 'busbar.blend'
# www.blender.org
mtllib busmaterial.mtl
o busbar_edge_outside
v 0.437500 0.187500 1.000000
v 0.437500 0.250000 1.000000
v 0.125000 0.187500 0.812500
v 0.437500 0.250000 0.750000
v 0.562500 0.187500 1.000000
v 0.562500 0.250000 1.000000
v 0.562500 0.187500 0.750000
v 0.250000 0.250000 0.812500
v 0.562500 0.250000 0.812500
v 0.437500 0.187500 0.812500
v 0.562500 0.250000 0.750000
v 0.250000 0.187500 0.750000
v 0.250000 0.250000 1.000000
v 0.437500 0.187500 0.750000
v 0.250000 0.187500 1.000000
v 0.437500 0.250000 0.812500
v 0.125000 0.250000 0.750000
v 0.125000 0.250000 1.000000
v 0.562500 0.187500 0.812500
v 0.125000 0.187500 1.000000
v 0.250000 0.250000 0.750000
v 0.125000 0.187500 0.750000
v 0.125000 0.250000 0.812500
v 0.250000 0.187500 0.812500
v 0.250000 0.000000 0.812500
v 0.125000 0.000000 0.750000
v 0.250000 0.000000 0.750000
v 0.750000 0.187500 0.812500
v 0.875000 0.250000 0.812500
v 0.875000 0.187500 0.750000
v 0.875000 0.250000 1.000000
v 0.875000 0.187500 1.000000
v 0.750000 0.250000 0.750000
v 0.750000 0.250000 1.000000
v 0.750000 0.187500 1.000000
v 0.875000 0.250000 0.750000
v 0.750000 0.187500 0.750000
v 0.750000 0.250000 0.812500
v 0.875000 0.187500 0.812500
v 0.750000 0.000000 0.750000
v 0.437500 0.000000 0.812500
v 0.437500 0.000000 0.750000
v 0.562500 0.000000 0.812500
v 0.562500 0.000000 0.750000
v 0.125000 0.000000 0.812500
v 0.750000 0.000000 0.812500
v 0.875000 0.000000 0.812500
v 0.875000 0.000000 0.750000
vt 0.187500 0.812500
vt 0.250000 0.812500
vt 0.250000 0.875000
vt 0.187500 0.875000
vt 0.000000 0.812500
vt 0.000000 0.875000
vt 0.437500 0.812500
vt 0.437500 0.875000
vt 0.312500 0.875000
vt 0.312500 0.812500
vt 0.000000 0.812500
vt 0.187500 0.812500
vt 0.187500 0.875000
vt 0.000000 0.875000
vt 0.437500 0.812500
vt 0.437500 0.875000
vt 0.312500 0.875000
vt 0.312500 0.812500
vt 0.250000 0.812500
vt 0.250000 0.875000
vt 0.000000 1.000000
vt 0.000000 0.875000
vt 0.187500 0.875000
vt 0.187500 1.000000
vt 0.000000 1.000000
vt 0.187500 1.000000
vt 0.250000 1.000000
vt 0.812500 0.812500
vt 1.000000 0.812500
vt 1.000000 0.875000
vt 0.812500 0.875000
vt 0.750000 0.812500
vt 0.750000 0.875000
vt 0.750000 0.875000
vt 0.562500 0.875000
vt 0.562500 0.812500
vt 0.750000 0.812500
vt 0.250000 0.875000
vt 0.437500 0.875000
vt 0.437500 1.000000
vt 0.250000 1.000000
vt 0.250000 0.812500
vt 0.437500 0.812500
vt 0.437500 0.875000
vt 0.250000 0.875000
vt 0.437500 1.000000
vt 0.250000 1.000000
vt 0.000000 1.000000
vt 0.000000 0.875000
vt 0.187500 0.875000
vt 0.187500 1.000000
vt 0.000000 1.000000
vt 0.187500 1.000000
vt 0.250000 1.000000
vt 0.812500 0.812500
vt 1.000000 0.812500
vt 1.000000 0.875000
vt 0.812500 0.875000
vt 0.750000 0.812500
vt 0.750000 0.875000
vt 0.750000 0.875000
vt 0.562500 0.875000
vt 0.562500 0.812500
vt 0.750000 0.812500
vt 0.250000 0.875000
vt 0.437500 0.875000
vt 0.437500 1.000000
vt 0.250000 1.000000
vt 0.250000 0.812500
vt 0.437500 0.812500
vt 0.437500 0.875000
vt 0.250000 0.875000
vt 0.437500 1.000000
vt 0.250000 1.000000
vt 0.187500 0.812500
vt 0.250000 0.812500
vt 0.250000 0.875000
vt 0.187500 0.875000
vt 0.000000 0.812500
vt 0.000000 0.875000
vt 0.437500 0.812500
vt 0.437500 0.875000
vt 0.312500 0.875000
vt 0.312500 0.812500
vt 0.000000 1.000000
vt 0.000000 0.875000
vt 0.187500 0.875000
vt 0.187500 1.000000
vt 0.000000 1.000000
vt 0.187500 1.000000
vt 0.250000 1.000000
vt 0.812500 0.812500
vt 1.000000 0.812500
vt 1.000000 0.875000
vt 0.812500 0.875000
vt 0.750000 0.812500
vt 0.750000 0.875000
vt 0.750000 0.875000
vt 0.562500 0.875000
vt 0.562500 0.812500
vt 0.750000 0.812500
vt 0.250000 0.875000
vt 0.437500 0.875000
vt 0.437500 1.000000
vt 0.250000 1.000000
vt 0.250000 0.812500
vt 0.437500 0.812500
vt 0.437500 0.875000
vt 0.250000 0.875000
vt 0.437500 1.000000
vt 0.250000 1.000000
vn 1.0000 0.0000 0.0000
vn 0.0000 0.0000 -1.0000
vn 0.0000 -1.0000 0.0000
vn 0.0000 1.0000 0.0000
vn -1.0000 0.0000 0.0000
vn 0.0000 0.0000 1.0000
usemtl None
s off
f 24/1/1 12/2/1 21/3/1 8/4/1
f 15/5/1 24/1/1 8/4/1 13/6/1
f 22/7/2 17/8/2 21/9/2 12/10/2
f 5/11/1 19/12/1 9/13/1 6/14/1
f 14/15/2 4/16/2 11/17/2 7/18/2
f 19/12/1 7/19/1 11/20/1 9/13/1
f 5/21/3 1/22/3 10/23/3 19/24/3
f 2/25/4 6/14/4 9/13/4 16/26/4
f 11/20/4 4/27/4 16/26/4 9/13/4
f 10/28/5 1/29/5 2/30/5 16/31/5
f 14/32/5 10/28/5 16/31/5 4/33/5
f 14/34/5 42/35/5 41/36/5 10/37/5
f 10/38/6 41/39/6 43/40/6 19/41/6
f 19/42/1 43/43/1 44/44/1 7/45/1
f 42/46/2 14/47/2 7/45/2 44/44/2
f 15/48/3 20/49/3 3/50/3 24/51/3
f 18/52/4 13/6/4 8/4/4 23/53/4
f 21/3/4 17/54/4 23/53/4 8/4/4
f 3/55/5 20/56/5 18/57/5 23/58/5
f 22/59/5 3/55/5 23/58/5 17/60/5
f 22/61/5 26/62/5 45/63/5 3/64/5
f 3/65/6 45/66/6 25/67/6 24/68/6
f 24/69/1 25/70/1 27/71/1 12/72/1
f 26/73/2 22/74/2 12/72/2 27/71/2
f 39/75/1 30/76/1 36/77/1 29/78/1
f 32/79/1 39/75/1 29/78/1 31/80/1
f 37/81/2 33/82/2 36/83/2 30/84/2
f 32/85/3 35/86/3 28/87/3 39/88/3
f 34/89/4 31/80/4 29/78/4 38/90/4
f 36/77/4 33/91/4 38/90/4 29/78/4
f 28/92/5 35/93/5 34/94/5 38/95/5
f 37/96/5 28/92/5 38/95/5 33/97/5
f 37/98/5 40/99/5 46/100/5 28/101/5
f 28/102/6 46/103/6 47/104/6 39/105/6
f 39/106/1 47/107/1 48/108/1 30/109/1
f 40/110/2 37/111/2 30/109/2 48/108/2
